<mxfile host="app.diagrams.net" modified="2024-06-22T22:46:18.262Z" agent="Mozilla/5.0 (Windows NT 10.0; Win64; x64; rv:129.0) Gecko/20100101 Firefox/129.0" etag="CHTXy2KQ9YmurH81DGrt" version="24.6.2" type="device">
  <diagram name="Page-1" id="mdohscFBZcOfMDgJQzi5">
    <mxGraphModel dx="3240" dy="2390" grid="1" gridSize="10" guides="1" tooltips="1" connect="1" arrows="1" fold="1" page="1" pageScale="1" pageWidth="850" pageHeight="1100" math="0" shadow="0">
      <root>
        <mxCell id="0" />
        <mxCell id="1" parent="0" />
        <mxCell id="sDwF8hnsM-LfDhYStic3-19" style="edgeStyle=orthogonalEdgeStyle;rounded=0;orthogonalLoop=1;jettySize=auto;html=1;entryX=0.5;entryY=0;entryDx=0;entryDy=0;" edge="1" parent="1" source="3" target="sDwF8hnsM-LfDhYStic3-16">
          <mxGeometry relative="1" as="geometry" />
        </mxCell>
        <mxCell id="sDwF8hnsM-LfDhYStic3-25" style="edgeStyle=orthogonalEdgeStyle;rounded=0;orthogonalLoop=1;jettySize=auto;html=1;entryX=0;entryY=0.5;entryDx=0;entryDy=0;" edge="1" parent="1" source="sDwF8hnsM-LfDhYStic3-6" target="sDwF8hnsM-LfDhYStic3-9">
          <mxGeometry relative="1" as="geometry" />
        </mxCell>
        <mxCell id="sDwF8hnsM-LfDhYStic3-45" style="edgeStyle=orthogonalEdgeStyle;rounded=0;orthogonalLoop=1;jettySize=auto;html=1;entryX=0.5;entryY=0;entryDx=0;entryDy=0;" edge="1" parent="1" source="3" target="sDwF8hnsM-LfDhYStic3-6">
          <mxGeometry relative="1" as="geometry">
            <Array as="points">
              <mxPoint x="50" y="140" />
              <mxPoint x="137" y="140" />
            </Array>
          </mxGeometry>
        </mxCell>
        <mxCell id="3" value="Lemma 3" style="rounded=1;absoluteArcSize=1;arcSize=14;whiteSpace=wrap;strokeWidth=2;" parent="1" vertex="1">
          <mxGeometry x="-9.5" y="64" width="63" height="34" as="geometry" />
        </mxCell>
        <mxCell id="4" value="sufficiency" style="whiteSpace=wrap;strokeWidth=2;" parent="1" vertex="1">
          <mxGeometry y="290" width="101" height="34" as="geometry" />
        </mxCell>
        <mxCell id="sDwF8hnsM-LfDhYStic3-20" style="edgeStyle=orthogonalEdgeStyle;rounded=0;orthogonalLoop=1;jettySize=auto;html=1;entryX=1;entryY=0.5;entryDx=0;entryDy=0;" edge="1" parent="1" source="sDwF8hnsM-LfDhYStic3-6" target="sDwF8hnsM-LfDhYStic3-16">
          <mxGeometry relative="1" as="geometry">
            <Array as="points">
              <mxPoint x="169" y="187" />
              <mxPoint x="126" y="187" />
              <mxPoint x="126" y="227" />
            </Array>
          </mxGeometry>
        </mxCell>
        <mxCell id="sDwF8hnsM-LfDhYStic3-22" style="edgeStyle=orthogonalEdgeStyle;rounded=0;orthogonalLoop=1;jettySize=auto;html=1;entryX=0;entryY=0.5;entryDx=0;entryDy=0;" edge="1" parent="1" source="sDwF8hnsM-LfDhYStic3-7" target="sDwF8hnsM-LfDhYStic3-16">
          <mxGeometry relative="1" as="geometry">
            <Array as="points">
              <mxPoint x="-25" y="227" />
            </Array>
          </mxGeometry>
        </mxCell>
        <mxCell id="sDwF8hnsM-LfDhYStic3-50" style="edgeStyle=orthogonalEdgeStyle;rounded=0;orthogonalLoop=1;jettySize=auto;html=1;entryX=0;entryY=0.5;entryDx=0;entryDy=0;" edge="1" parent="1" source="sDwF8hnsM-LfDhYStic3-7" target="3">
          <mxGeometry relative="1" as="geometry" />
        </mxCell>
        <mxCell id="sDwF8hnsM-LfDhYStic3-7" value="Lemma 2" style="rounded=1;absoluteArcSize=1;arcSize=14;whiteSpace=wrap;strokeWidth=2;" vertex="1" parent="1">
          <mxGeometry x="-120" y="44" width="63" height="34" as="geometry" />
        </mxCell>
        <mxCell id="sDwF8hnsM-LfDhYStic3-23" style="edgeStyle=orthogonalEdgeStyle;rounded=0;orthogonalLoop=1;jettySize=auto;html=1;entryX=0;entryY=0.5;entryDx=0;entryDy=0;" edge="1" parent="1" source="sDwF8hnsM-LfDhYStic3-8" target="sDwF8hnsM-LfDhYStic3-16">
          <mxGeometry relative="1" as="geometry" />
        </mxCell>
        <mxCell id="sDwF8hnsM-LfDhYStic3-51" style="edgeStyle=orthogonalEdgeStyle;rounded=0;orthogonalLoop=1;jettySize=auto;html=1;entryX=0;entryY=0.5;entryDx=0;entryDy=0;" edge="1" parent="1" source="sDwF8hnsM-LfDhYStic3-8" target="3">
          <mxGeometry relative="1" as="geometry" />
        </mxCell>
        <mxCell id="sDwF8hnsM-LfDhYStic3-8" value="Lemma 1" style="rounded=1;absoluteArcSize=1;arcSize=14;whiteSpace=wrap;strokeWidth=2;" vertex="1" parent="1">
          <mxGeometry x="-330" y="10" width="63" height="34" as="geometry" />
        </mxCell>
        <mxCell id="sDwF8hnsM-LfDhYStic3-21" style="edgeStyle=orthogonalEdgeStyle;rounded=0;orthogonalLoop=1;jettySize=auto;html=1;entryX=1;entryY=0.5;entryDx=0;entryDy=0;" edge="1" parent="1" source="sDwF8hnsM-LfDhYStic3-9" target="sDwF8hnsM-LfDhYStic3-16">
          <mxGeometry relative="1" as="geometry" />
        </mxCell>
        <mxCell id="sDwF8hnsM-LfDhYStic3-9" value="Lemma 5" style="rounded=1;absoluteArcSize=1;arcSize=14;whiteSpace=wrap;strokeWidth=2;" vertex="1" parent="1">
          <mxGeometry x="310" y="190" width="63" height="34" as="geometry" />
        </mxCell>
        <mxCell id="sDwF8hnsM-LfDhYStic3-24" style="edgeStyle=orthogonalEdgeStyle;rounded=0;orthogonalLoop=1;jettySize=auto;html=1;entryX=0;entryY=0.5;entryDx=0;entryDy=0;" edge="1" parent="1" source="sDwF8hnsM-LfDhYStic3-10" target="sDwF8hnsM-LfDhYStic3-16">
          <mxGeometry relative="1" as="geometry" />
        </mxCell>
        <mxCell id="sDwF8hnsM-LfDhYStic3-53" style="edgeStyle=orthogonalEdgeStyle;rounded=0;orthogonalLoop=1;jettySize=auto;html=1;entryX=0;entryY=0.5;entryDx=0;entryDy=0;" edge="1" parent="1" source="sDwF8hnsM-LfDhYStic3-10" target="sDwF8hnsM-LfDhYStic3-8">
          <mxGeometry relative="1" as="geometry" />
        </mxCell>
        <mxCell id="sDwF8hnsM-LfDhYStic3-10" value="makeCallsAddAgentInitialState" style="rounded=1;absoluteArcSize=1;arcSize=14;whiteSpace=wrap;strokeWidth=2;" vertex="1" parent="1">
          <mxGeometry x="-660" y="-94" width="260" height="34" as="geometry" />
        </mxCell>
        <mxCell id="sDwF8hnsM-LfDhYStic3-18" style="edgeStyle=orthogonalEdgeStyle;rounded=0;orthogonalLoop=1;jettySize=auto;html=1;entryX=0.5;entryY=0;entryDx=0;entryDy=0;" edge="1" parent="1" source="sDwF8hnsM-LfDhYStic3-16" target="4">
          <mxGeometry relative="1" as="geometry" />
        </mxCell>
        <mxCell id="sDwF8hnsM-LfDhYStic3-16" value="inductive_case" style="rounded=1;absoluteArcSize=1;arcSize=14;whiteSpace=wrap;strokeWidth=2;" vertex="1" parent="1">
          <mxGeometry x="-5" y="210" width="111" height="34" as="geometry" />
        </mxCell>
        <mxCell id="sDwF8hnsM-LfDhYStic3-46" style="edgeStyle=orthogonalEdgeStyle;rounded=0;orthogonalLoop=1;jettySize=auto;html=1;entryX=0.5;entryY=0;entryDx=0;entryDy=0;" edge="1" parent="1" source="sDwF8hnsM-LfDhYStic3-27" target="sDwF8hnsM-LfDhYStic3-6">
          <mxGeometry relative="1" as="geometry" />
        </mxCell>
        <mxCell id="sDwF8hnsM-LfDhYStic3-49" style="edgeStyle=orthogonalEdgeStyle;rounded=0;orthogonalLoop=1;jettySize=auto;html=1;entryX=0.5;entryY=0;entryDx=0;entryDy=0;" edge="1" parent="1" source="sDwF8hnsM-LfDhYStic3-27" target="sDwF8hnsM-LfDhYStic3-6">
          <mxGeometry relative="1" as="geometry">
            <Array as="points">
              <mxPoint x="446" y="-293" />
              <mxPoint x="270" y="-293" />
              <mxPoint x="270" y="120" />
            </Array>
          </mxGeometry>
        </mxCell>
        <mxCell id="sDwF8hnsM-LfDhYStic3-74" style="edgeStyle=orthogonalEdgeStyle;rounded=0;orthogonalLoop=1;jettySize=auto;html=1;entryX=0.5;entryY=0;entryDx=0;entryDy=0;" edge="1" parent="1" source="sDwF8hnsM-LfDhYStic3-82" target="sDwF8hnsM-LfDhYStic3-65">
          <mxGeometry relative="1" as="geometry" />
        </mxCell>
        <mxCell id="sDwF8hnsM-LfDhYStic3-96" style="edgeStyle=orthogonalEdgeStyle;rounded=0;orthogonalLoop=1;jettySize=auto;html=1;entryX=0.5;entryY=0;entryDx=0;entryDy=0;" edge="1" parent="1" source="sDwF8hnsM-LfDhYStic3-27" target="sDwF8hnsM-LfDhYStic3-10">
          <mxGeometry relative="1" as="geometry" />
        </mxCell>
        <mxCell id="sDwF8hnsM-LfDhYStic3-105" style="edgeStyle=orthogonalEdgeStyle;rounded=0;orthogonalLoop=1;jettySize=auto;html=1;entryX=0.5;entryY=0;entryDx=0;entryDy=0;" edge="1" parent="1" source="sDwF8hnsM-LfDhYStic3-27" target="sDwF8hnsM-LfDhYStic3-47">
          <mxGeometry relative="1" as="geometry" />
        </mxCell>
        <mxCell id="sDwF8hnsM-LfDhYStic3-107" style="edgeStyle=orthogonalEdgeStyle;rounded=0;orthogonalLoop=1;jettySize=auto;html=1;entryX=0.5;entryY=0;entryDx=0;entryDy=0;" edge="1" parent="1" source="sDwF8hnsM-LfDhYStic3-27" target="sDwF8hnsM-LfDhYStic3-41">
          <mxGeometry relative="1" as="geometry" />
        </mxCell>
        <mxCell id="sDwF8hnsM-LfDhYStic3-27" value="makeCalls_cons" style="rounded=1;absoluteArcSize=1;arcSize=14;whiteSpace=wrap;strokeWidth=2;" vertex="1" parent="1">
          <mxGeometry x="300" y="-750" width="111" height="34" as="geometry" />
        </mxCell>
        <mxCell id="sDwF8hnsM-LfDhYStic3-76" style="edgeStyle=orthogonalEdgeStyle;rounded=0;orthogonalLoop=1;jettySize=auto;html=1;entryX=0.5;entryY=0;entryDx=0;entryDy=0;" edge="1" parent="1" source="sDwF8hnsM-LfDhYStic3-28" target="sDwF8hnsM-LfDhYStic3-65">
          <mxGeometry relative="1" as="geometry" />
        </mxCell>
        <mxCell id="sDwF8hnsM-LfDhYStic3-28" value="addAgentEquivCall" style="rounded=1;absoluteArcSize=1;arcSize=14;whiteSpace=wrap;strokeWidth=2;" vertex="1" parent="1">
          <mxGeometry x="360" y="-480" width="130" height="34" as="geometry" />
        </mxCell>
        <mxCell id="sDwF8hnsM-LfDhYStic3-29" style="edgeStyle=orthogonalEdgeStyle;rounded=0;orthogonalLoop=1;jettySize=auto;html=1;entryX=0.492;entryY=-0.092;entryDx=0;entryDy=0;entryPerimeter=0;" edge="1" parent="1" source="sDwF8hnsM-LfDhYStic3-27" target="sDwF8hnsM-LfDhYStic3-9">
          <mxGeometry relative="1" as="geometry" />
        </mxCell>
        <mxCell id="sDwF8hnsM-LfDhYStic3-32" style="edgeStyle=orthogonalEdgeStyle;rounded=0;orthogonalLoop=1;jettySize=auto;html=1;entryX=0.5;entryY=0;entryDx=0;entryDy=0;" edge="1" parent="1" source="sDwF8hnsM-LfDhYStic3-31" target="sDwF8hnsM-LfDhYStic3-9">
          <mxGeometry relative="1" as="geometry" />
        </mxCell>
        <mxCell id="sDwF8hnsM-LfDhYStic3-97" style="edgeStyle=orthogonalEdgeStyle;rounded=0;orthogonalLoop=1;jettySize=auto;html=1;entryX=0.5;entryY=0;entryDx=0;entryDy=0;" edge="1" parent="1" source="sDwF8hnsM-LfDhYStic3-31" target="sDwF8hnsM-LfDhYStic3-10">
          <mxGeometry relative="1" as="geometry" />
        </mxCell>
        <mxCell id="sDwF8hnsM-LfDhYStic3-31" value="addAgentEqualsSucc" style="rounded=1;absoluteArcSize=1;arcSize=14;whiteSpace=wrap;strokeWidth=2;" vertex="1" parent="1">
          <mxGeometry x="140" y="-594" width="140" height="34" as="geometry" />
        </mxCell>
        <mxCell id="sDwF8hnsM-LfDhYStic3-34" style="edgeStyle=orthogonalEdgeStyle;rounded=0;orthogonalLoop=1;jettySize=auto;html=1;entryX=0.5;entryY=0;entryDx=0;entryDy=0;" edge="1" parent="1" source="sDwF8hnsM-LfDhYStic3-33" target="sDwF8hnsM-LfDhYStic3-9">
          <mxGeometry relative="1" as="geometry" />
        </mxCell>
        <mxCell id="sDwF8hnsM-LfDhYStic3-33" value="expertMakesExpert" style="rounded=1;absoluteArcSize=1;arcSize=14;whiteSpace=wrap;strokeWidth=2;" vertex="1" parent="1">
          <mxGeometry x="107" y="-110" width="123" height="34" as="geometry" />
        </mxCell>
        <mxCell id="sDwF8hnsM-LfDhYStic3-36" style="edgeStyle=orthogonalEdgeStyle;rounded=0;orthogonalLoop=1;jettySize=auto;html=1;entryX=0.5;entryY=0;entryDx=0;entryDy=0;" edge="1" parent="1" source="sDwF8hnsM-LfDhYStic3-35" target="sDwF8hnsM-LfDhYStic3-6">
          <mxGeometry relative="1" as="geometry" />
        </mxCell>
        <mxCell id="sDwF8hnsM-LfDhYStic3-38" style="edgeStyle=orthogonalEdgeStyle;rounded=0;orthogonalLoop=1;jettySize=auto;html=1;entryX=0.5;entryY=0;entryDx=0;entryDy=0;" edge="1" parent="1" source="sDwF8hnsM-LfDhYStic3-37" target="sDwF8hnsM-LfDhYStic3-6">
          <mxGeometry relative="1" as="geometry" />
        </mxCell>
        <mxCell id="sDwF8hnsM-LfDhYStic3-39" style="edgeStyle=orthogonalEdgeStyle;rounded=0;orthogonalLoop=1;jettySize=auto;html=1;entryX=0.5;entryY=0;entryDx=0;entryDy=0;" edge="1" parent="1" source="sDwF8hnsM-LfDhYStic3-37" target="sDwF8hnsM-LfDhYStic3-6">
          <mxGeometry relative="1" as="geometry" />
        </mxCell>
        <mxCell id="sDwF8hnsM-LfDhYStic3-64" style="edgeStyle=orthogonalEdgeStyle;rounded=0;orthogonalLoop=1;jettySize=auto;html=1;entryX=0.5;entryY=0;entryDx=0;entryDy=0;" edge="1" parent="1" source="sDwF8hnsM-LfDhYStic3-37" target="sDwF8hnsM-LfDhYStic3-63">
          <mxGeometry relative="1" as="geometry">
            <Array as="points">
              <mxPoint x="70" y="-483" />
              <mxPoint x="70" y="-4" />
            </Array>
          </mxGeometry>
        </mxCell>
        <mxCell id="sDwF8hnsM-LfDhYStic3-37" value="cantContainLast" style="rounded=1;absoluteArcSize=1;arcSize=14;whiteSpace=wrap;strokeWidth=2;" vertex="1" parent="1">
          <mxGeometry x="-130" y="-526" width="140" height="34" as="geometry" />
        </mxCell>
        <mxCell id="sDwF8hnsM-LfDhYStic3-42" style="edgeStyle=orthogonalEdgeStyle;rounded=0;orthogonalLoop=1;jettySize=auto;html=1;entryX=0.5;entryY=0;entryDx=0;entryDy=0;" edge="1" parent="1" source="sDwF8hnsM-LfDhYStic3-40" target="sDwF8hnsM-LfDhYStic3-6">
          <mxGeometry relative="1" as="geometry" />
        </mxCell>
        <mxCell id="sDwF8hnsM-LfDhYStic3-57" style="edgeStyle=orthogonalEdgeStyle;rounded=0;orthogonalLoop=1;jettySize=auto;html=1;entryX=0.5;entryY=0;entryDx=0;entryDy=0;" edge="1" parent="1" source="sDwF8hnsM-LfDhYStic3-41" target="sDwF8hnsM-LfDhYStic3-8">
          <mxGeometry relative="1" as="geometry">
            <Array as="points" />
          </mxGeometry>
        </mxCell>
        <mxCell id="sDwF8hnsM-LfDhYStic3-106" style="edgeStyle=orthogonalEdgeStyle;rounded=0;orthogonalLoop=1;jettySize=auto;html=1;entryX=0.5;entryY=0;entryDx=0;entryDy=0;" edge="1" parent="1" source="sDwF8hnsM-LfDhYStic3-40" target="sDwF8hnsM-LfDhYStic3-47">
          <mxGeometry relative="1" as="geometry" />
        </mxCell>
        <mxCell id="sDwF8hnsM-LfDhYStic3-40" value="makeCallMakesGossip" style="rounded=1;absoluteArcSize=1;arcSize=14;whiteSpace=wrap;strokeWidth=2;" vertex="1" parent="1">
          <mxGeometry x="-191" y="-628" width="188.5" height="34" as="geometry" />
        </mxCell>
        <mxCell id="sDwF8hnsM-LfDhYStic3-43" style="edgeStyle=orthogonalEdgeStyle;rounded=0;orthogonalLoop=1;jettySize=auto;html=1;entryX=0.5;entryY=0;entryDx=0;entryDy=0;" edge="1" parent="1" source="sDwF8hnsM-LfDhYStic3-41" target="sDwF8hnsM-LfDhYStic3-6">
          <mxGeometry relative="1" as="geometry" />
        </mxCell>
        <mxCell id="sDwF8hnsM-LfDhYStic3-56" style="edgeStyle=orthogonalEdgeStyle;rounded=0;orthogonalLoop=1;jettySize=auto;html=1;entryX=0.5;entryY=0;entryDx=0;entryDy=0;" edge="1" parent="1" source="sDwF8hnsM-LfDhYStic3-41" target="sDwF8hnsM-LfDhYStic3-8">
          <mxGeometry relative="1" as="geometry" />
        </mxCell>
        <mxCell id="sDwF8hnsM-LfDhYStic3-48" style="edgeStyle=orthogonalEdgeStyle;rounded=0;orthogonalLoop=1;jettySize=auto;html=1;entryX=0.5;entryY=0;entryDx=0;entryDy=0;" edge="1" parent="1" source="sDwF8hnsM-LfDhYStic3-47" target="sDwF8hnsM-LfDhYStic3-6">
          <mxGeometry relative="1" as="geometry">
            <Array as="points">
              <mxPoint x="-396" y="-460" />
              <mxPoint x="150" y="-460" />
              <mxPoint x="150" y="130" />
            </Array>
          </mxGeometry>
        </mxCell>
        <mxCell id="sDwF8hnsM-LfDhYStic3-62" style="edgeStyle=orthogonalEdgeStyle;rounded=0;orthogonalLoop=1;jettySize=auto;html=1;entryX=0.5;entryY=0;entryDx=0;entryDy=0;" edge="1" parent="1" source="sDwF8hnsM-LfDhYStic3-47" target="sDwF8hnsM-LfDhYStic3-60">
          <mxGeometry relative="1" as="geometry" />
        </mxCell>
        <mxCell id="sDwF8hnsM-LfDhYStic3-59" style="edgeStyle=orthogonalEdgeStyle;rounded=0;orthogonalLoop=1;jettySize=auto;html=1;entryX=0.5;entryY=0;entryDx=0;entryDy=0;" edge="1" parent="1" source="sDwF8hnsM-LfDhYStic3-58" target="sDwF8hnsM-LfDhYStic3-6">
          <mxGeometry relative="1" as="geometry" />
        </mxCell>
        <mxCell id="sDwF8hnsM-LfDhYStic3-58" value="twoSecretsSucc" style="rounded=1;absoluteArcSize=1;arcSize=14;whiteSpace=wrap;strokeWidth=2;" vertex="1" parent="1">
          <mxGeometry x="370" y="30" width="188.5" height="34" as="geometry" />
        </mxCell>
        <mxCell id="sDwF8hnsM-LfDhYStic3-61" style="edgeStyle=orthogonalEdgeStyle;rounded=0;orthogonalLoop=1;jettySize=auto;html=1;entryX=0.5;entryY=0;entryDx=0;entryDy=0;" edge="1" parent="1" source="sDwF8hnsM-LfDhYStic3-60" target="sDwF8hnsM-LfDhYStic3-58">
          <mxGeometry relative="1" as="geometry" />
        </mxCell>
        <mxCell id="sDwF8hnsM-LfDhYStic3-60" value="twoSecretsSuccSingle" style="rounded=1;absoluteArcSize=1;arcSize=14;whiteSpace=wrap;strokeWidth=2;" vertex="1" parent="1">
          <mxGeometry x="370" y="-76" width="188.5" height="34" as="geometry" />
        </mxCell>
        <mxCell id="sDwF8hnsM-LfDhYStic3-67" style="edgeStyle=orthogonalEdgeStyle;rounded=0;orthogonalLoop=1;jettySize=auto;html=1;entryX=0.5;entryY=0;entryDx=0;entryDy=0;" edge="1" parent="1" source="sDwF8hnsM-LfDhYStic3-63" target="sDwF8hnsM-LfDhYStic3-8">
          <mxGeometry relative="1" as="geometry" />
        </mxCell>
        <mxCell id="sDwF8hnsM-LfDhYStic3-69" style="edgeStyle=orthogonalEdgeStyle;rounded=0;orthogonalLoop=1;jettySize=auto;html=1;entryX=0.25;entryY=0;entryDx=0;entryDy=0;" edge="1" parent="1" source="sDwF8hnsM-LfDhYStic3-63" target="sDwF8hnsM-LfDhYStic3-6">
          <mxGeometry relative="1" as="geometry" />
        </mxCell>
        <mxCell id="sDwF8hnsM-LfDhYStic3-63" value="addAgentReplaceable" style="rounded=1;absoluteArcSize=1;arcSize=14;whiteSpace=wrap;strokeWidth=2;" vertex="1" parent="1">
          <mxGeometry x="-48" y="-4" width="140" height="34" as="geometry" />
        </mxCell>
        <mxCell id="sDwF8hnsM-LfDhYStic3-65" value="addAgentCanSwap" style="rounded=1;absoluteArcSize=1;arcSize=14;whiteSpace=wrap;strokeWidth=2;" vertex="1" parent="1">
          <mxGeometry x="-51" y="-120" width="140" height="34" as="geometry" />
        </mxCell>
        <mxCell id="sDwF8hnsM-LfDhYStic3-70" value="" style="edgeStyle=orthogonalEdgeStyle;rounded=0;orthogonalLoop=1;jettySize=auto;html=1;entryX=0;entryY=0.5;entryDx=0;entryDy=0;" edge="1" parent="1" source="3" target="sDwF8hnsM-LfDhYStic3-6">
          <mxGeometry relative="1" as="geometry">
            <mxPoint x="54" y="81" as="sourcePoint" />
            <mxPoint x="310" y="207" as="targetPoint" />
          </mxGeometry>
        </mxCell>
        <mxCell id="sDwF8hnsM-LfDhYStic3-6" value="Lemma 4" style="rounded=1;absoluteArcSize=1;arcSize=14;whiteSpace=wrap;strokeWidth=2;" vertex="1" parent="1">
          <mxGeometry x="137" y="130" width="63" height="34" as="geometry" />
        </mxCell>
        <mxCell id="sDwF8hnsM-LfDhYStic3-99" style="edgeStyle=orthogonalEdgeStyle;rounded=0;orthogonalLoop=1;jettySize=auto;html=1;entryX=0.5;entryY=0;entryDx=0;entryDy=0;" edge="1" parent="1" source="sDwF8hnsM-LfDhYStic3-35" target="sDwF8hnsM-LfDhYStic3-8">
          <mxGeometry relative="1" as="geometry" />
        </mxCell>
        <mxCell id="sDwF8hnsM-LfDhYStic3-35" value="addAgentExpertOld" style="rounded=1;absoluteArcSize=1;arcSize=14;whiteSpace=wrap;strokeWidth=2;" vertex="1" parent="1">
          <mxGeometry x="-191" y="-200" width="140" height="34" as="geometry" />
        </mxCell>
        <mxCell id="sDwF8hnsM-LfDhYStic3-104" style="edgeStyle=orthogonalEdgeStyle;rounded=0;orthogonalLoop=1;jettySize=auto;html=1;entryX=0.5;entryY=0;entryDx=0;entryDy=0;" edge="1" parent="1" source="sDwF8hnsM-LfDhYStic3-47" target="sDwF8hnsM-LfDhYStic3-6">
          <mxGeometry relative="1" as="geometry" />
        </mxCell>
        <mxCell id="sDwF8hnsM-LfDhYStic3-47" value="callsIncreaseGossip" style="rounded=1;absoluteArcSize=1;arcSize=14;whiteSpace=wrap;strokeWidth=2;" vertex="1" parent="1">
          <mxGeometry x="-490" y="-430" width="188.5" height="34" as="geometry" />
        </mxCell>
        <mxCell id="sDwF8hnsM-LfDhYStic3-98" style="edgeStyle=orthogonalEdgeStyle;rounded=0;orthogonalLoop=1;jettySize=auto;html=1;entryX=0.5;entryY=0;entryDx=0;entryDy=0;" edge="1" parent="1" source="sDwF8hnsM-LfDhYStic3-75" target="sDwF8hnsM-LfDhYStic3-10">
          <mxGeometry relative="1" as="geometry" />
        </mxCell>
        <mxCell id="sDwF8hnsM-LfDhYStic3-75" value="makeCalls_snoc" style="rounded=1;absoluteArcSize=1;arcSize=14;whiteSpace=wrap;strokeWidth=2;" vertex="1" parent="1">
          <mxGeometry x="-210" y="-730" width="111" height="34" as="geometry" />
        </mxCell>
        <mxCell id="sDwF8hnsM-LfDhYStic3-79" style="edgeStyle=orthogonalEdgeStyle;rounded=0;orthogonalLoop=1;jettySize=auto;html=1;entryX=0.5;entryY=0;entryDx=0;entryDy=0;" edge="1" parent="1" source="sDwF8hnsM-LfDhYStic3-82" target="sDwF8hnsM-LfDhYStic3-65">
          <mxGeometry relative="1" as="geometry" />
        </mxCell>
        <mxCell id="sDwF8hnsM-LfDhYStic3-83" style="edgeStyle=orthogonalEdgeStyle;rounded=0;orthogonalLoop=1;jettySize=auto;html=1;entryX=0.5;entryY=0;entryDx=0;entryDy=0;" edge="1" parent="1" source="sDwF8hnsM-LfDhYStic3-82" target="sDwF8hnsM-LfDhYStic3-65">
          <mxGeometry relative="1" as="geometry" />
        </mxCell>
        <mxCell id="sDwF8hnsM-LfDhYStic3-82" value="notContainedTail" style="rounded=1;absoluteArcSize=1;arcSize=14;whiteSpace=wrap;strokeWidth=2;" vertex="1" parent="1">
          <mxGeometry x="-800" y="-154" width="111" height="34" as="geometry" />
        </mxCell>
        <mxCell id="sDwF8hnsM-LfDhYStic3-88" style="edgeStyle=orthogonalEdgeStyle;rounded=0;orthogonalLoop=1;jettySize=auto;html=1;entryX=0.5;entryY=0;entryDx=0;entryDy=0;" edge="1" parent="1" source="sDwF8hnsM-LfDhYStic3-77" target="sDwF8hnsM-LfDhYStic3-65">
          <mxGeometry relative="1" as="geometry" />
        </mxCell>
        <mxCell id="sDwF8hnsM-LfDhYStic3-77" value="makeCallEquivalence" style="rounded=1;absoluteArcSize=1;arcSize=14;whiteSpace=wrap;strokeWidth=2;" vertex="1" parent="1">
          <mxGeometry x="-690" y="-260" width="170" height="34" as="geometry" />
        </mxCell>
        <mxCell id="sDwF8hnsM-LfDhYStic3-90" style="edgeStyle=orthogonalEdgeStyle;rounded=0;orthogonalLoop=1;jettySize=auto;html=1;entryX=0.5;entryY=0;entryDx=0;entryDy=0;" edge="1" parent="1" source="sDwF8hnsM-LfDhYStic3-89" target="sDwF8hnsM-LfDhYStic3-77">
          <mxGeometry relative="1" as="geometry" />
        </mxCell>
        <mxCell id="sDwF8hnsM-LfDhYStic3-89" value="addAgentMakeCallsCommute" style="rounded=1;absoluteArcSize=1;arcSize=14;whiteSpace=wrap;strokeWidth=2;" vertex="1" parent="1">
          <mxGeometry x="-710" y="-410" width="190" height="34" as="geometry" />
        </mxCell>
        <mxCell id="sDwF8hnsM-LfDhYStic3-93" style="edgeStyle=orthogonalEdgeStyle;rounded=0;orthogonalLoop=1;jettySize=auto;html=1;entryX=0.5;entryY=0;entryDx=0;entryDy=0;" edge="1" parent="1" source="sDwF8hnsM-LfDhYStic3-91" target="sDwF8hnsM-LfDhYStic3-89">
          <mxGeometry relative="1" as="geometry" />
        </mxCell>
        <mxCell id="sDwF8hnsM-LfDhYStic3-91" value="addAgentMakeCallCommute" style="rounded=1;absoluteArcSize=1;arcSize=14;whiteSpace=wrap;strokeWidth=2;" vertex="1" parent="1">
          <mxGeometry x="-710" y="-560" width="190" height="34" as="geometry" />
        </mxCell>
        <mxCell id="sDwF8hnsM-LfDhYStic3-95" style="edgeStyle=orthogonalEdgeStyle;rounded=0;orthogonalLoop=1;jettySize=auto;html=1;entryX=0.5;entryY=0;entryDx=0;entryDy=0;" edge="1" parent="1" source="sDwF8hnsM-LfDhYStic3-94" target="sDwF8hnsM-LfDhYStic3-91">
          <mxGeometry relative="1" as="geometry" />
        </mxCell>
        <mxCell id="sDwF8hnsM-LfDhYStic3-94" value="singleCantContainLast" style="rounded=1;absoluteArcSize=1;arcSize=14;whiteSpace=wrap;strokeWidth=2;" vertex="1" parent="1">
          <mxGeometry x="-710" y="-650" width="190" height="34" as="geometry" />
        </mxCell>
        <mxCell id="sDwF8hnsM-LfDhYStic3-101" style="edgeStyle=orthogonalEdgeStyle;rounded=0;orthogonalLoop=1;jettySize=auto;html=1;entryX=0.492;entryY=-0.206;entryDx=0;entryDy=0;entryPerimeter=0;" edge="1" parent="1" source="sDwF8hnsM-LfDhYStic3-47" target="sDwF8hnsM-LfDhYStic3-7">
          <mxGeometry relative="1" as="geometry" />
        </mxCell>
        <mxCell id="sDwF8hnsM-LfDhYStic3-108" value="" style="edgeStyle=orthogonalEdgeStyle;rounded=0;orthogonalLoop=1;jettySize=auto;html=1;entryX=0.5;entryY=0;entryDx=0;entryDy=0;" edge="1" parent="1" source="sDwF8hnsM-LfDhYStic3-47" target="sDwF8hnsM-LfDhYStic3-41">
          <mxGeometry relative="1" as="geometry">
            <mxPoint x="-301" y="-413" as="sourcePoint" />
            <mxPoint x="-298" y="10" as="targetPoint" />
            <Array as="points">
              <mxPoint x="-260" y="10" />
            </Array>
          </mxGeometry>
        </mxCell>
        <mxCell id="sDwF8hnsM-LfDhYStic3-41" value="makeCalls_increases_gossip" style="rounded=1;absoluteArcSize=1;arcSize=14;whiteSpace=wrap;strokeWidth=2;" vertex="1" parent="1">
          <mxGeometry x="-318.5" y="-340" width="188.5" height="34" as="geometry" />
        </mxCell>
        <mxCell id="sDwF8hnsM-LfDhYStic3-110" style="edgeStyle=orthogonalEdgeStyle;rounded=0;orthogonalLoop=1;jettySize=auto;html=1;entryX=0.5;entryY=0;entryDx=0;entryDy=0;" edge="1" parent="1" source="sDwF8hnsM-LfDhYStic3-109" target="sDwF8hnsM-LfDhYStic3-41">
          <mxGeometry relative="1" as="geometry" />
        </mxCell>
        <mxCell id="sDwF8hnsM-LfDhYStic3-109" value="makeCallIncreasesGossip" style="rounded=1;absoluteArcSize=1;arcSize=14;whiteSpace=wrap;strokeWidth=2;" vertex="1" parent="1">
          <mxGeometry x="-360" y="-820" width="188.5" height="34" as="geometry" />
        </mxCell>
      </root>
    </mxGraphModel>
  </diagram>
</mxfile>
